<svg xmlns="http://www.w3.org/2000/svg" viewBox="0 0 96 72"><defs><linearGradient id="metal" x1="0" y1="0" x2="0" y2="1"><stop offset="0" stop-color="#596879"/><stop offset=".45" stop-color="#283746"/><stop offset="1" stop-color="#111c27"/></linearGradient><linearGradient id="black" x1="0" y1="0" x2="0" y2="1"><stop offset="0" stop-color="#3b4754"/><stop offset="1" stop-color="#101820"/></linearGradient><linearGradient id="screen" x1="0" y1="0" x2="1" y2="1"><stop offset="0" stop-color="#70d7ff"/><stop offset=".42" stop-color="#1597ee"/><stop offset="1" stop-color="#0b3c8d"/></linearGradient><radialGradient id="lens"><stop offset="0" stop-color="#62d7ff"/><stop offset=".35" stop-color="#166ea8"/><stop offset=".7" stop-color="#0a2038"/><stop offset="1" stop-color="#02060c"/></radialGradient><filter id="shadow" x="-30%" y="-30%" width="160%" height="180%"><feDropShadow dx="0" dy="3" stdDeviation="2.2" flood-color="#0a1725" flood-opacity=".32"/></filter><filter id="soft" x="-30%" y="-30%" width="160%" height="160%"><feGaussianBlur stdDeviation="1.4"/></filter></defs><g filter="url(#shadow)"><path d="M35 49c-7-5-11-13-11-22C24 14 34 5 48 5s24 9 24 22c0 9-4 17-11 22-4 3-5 7-5 10H40c0-3-1-7-5-10Z" fill="#f8c23e"/><path d="M39 55h18M40 60h16" stroke="#566575" stroke-width="4" stroke-linecap="round"/><path d="M42 47c-1-12 2-20 6-20s7 8 6 20" fill="none" stroke="#fff0a2" stroke-width="3"/></g></svg>