<svg xmlns="http://www.w3.org/2000/svg" viewBox="0 0 96 72"><defs><linearGradient id="metal" x1="0" y1="0" x2="0" y2="1"><stop offset="0" stop-color="#596879"/><stop offset=".45" stop-color="#283746"/><stop offset="1" stop-color="#111c27"/></linearGradient><linearGradient id="black" x1="0" y1="0" x2="0" y2="1"><stop offset="0" stop-color="#3b4754"/><stop offset="1" stop-color="#101820"/></linearGradient><linearGradient id="screen" x1="0" y1="0" x2="1" y2="1"><stop offset="0" stop-color="#70d7ff"/><stop offset=".42" stop-color="#1597ee"/><stop offset="1" stop-color="#0b3c8d"/></linearGradient><radialGradient id="lens"><stop offset="0" stop-color="#62d7ff"/><stop offset=".35" stop-color="#166ea8"/><stop offset=".7" stop-color="#0a2038"/><stop offset="1" stop-color="#02060c"/></radialGradient><filter id="shadow" x="-30%" y="-30%" width="160%" height="180%"><feDropShadow dx="0" dy="3" stdDeviation="2.2" flood-color="#0a1725" flood-opacity=".32"/></filter><filter id="soft" x="-30%" y="-30%" width="160%" height="160%"><feGaussianBlur stdDeviation="1.4"/></filter></defs><g filter="url(#shadow)"><rect x="10" y="25" width="76" height="31" rx="5" fill="url(#metal)"/><rect x="15" y="31" width="61" height="18" rx="2" fill="#0e161d"/><g fill="#293a46" stroke="#94a7b6" stroke-width=".7"><rect x="18" y="33" width="5" height="5" rx=".7"/><rect x="25" y="33" width="5" height="5" rx=".7"/><rect x="32" y="33" width="5" height="5" rx=".7"/><rect x="39" y="33" width="5" height="5" rx=".7"/><rect x="46" y="33" width="5" height="5" rx=".7"/><rect x="53" y="33" width="5" height="5" rx=".7"/><rect x="60" y="33" width="5" height="5" rx=".7"/><rect x="67" y="33" width="5" height="5" rx=".7"/><rect x="18" y="41" width="5" height="5" rx=".7"/><rect x="25" y="41" width="5" height="5" rx=".7"/><rect x="32" y="41" width="5" height="5" rx=".7"/><rect x="39" y="41" width="5" height="5" rx=".7"/><rect x="46" y="41" width="5" height="5" rx=".7"/><rect x="53" y="41" width="5" height="5" rx=".7"/><rect x="60" y="41" width="5" height="5" rx=".7"/><rect x="67" y="41" width="5" height="5" rx=".7"/></g><circle cx="80" cy="34" r="2" fill="#4ee084"/><circle cx="80" cy="41" r="2" fill="#4ee084"/></g></svg>